Coordinates
version=1
nRows=42
nColumns=11
inDegrees=no

Units are S.I. units (second, meters, Newtons, ...)
If the header above contains a line with 'inDegrees', this indicates whether rotational values are in degrees (yes) or radians (no).

endheader
time	pelvis_tilt	pelvis_tx	pelvis_ty	hip_flexion_r	knee_angle_r	ankle_angle_r	hip_flexion_l	knee_angle_l	ankle_angle_l	lumbar_extension
315.79	-0.0240997	0.312221	0.98772	0.462864	-0.238069	-0.0708263	-0.216184	-0.206879	0.408345	0
315.8	-0.0297082	0.313449	0.986923	0.474427	-0.263617	-0.0682566	-0.215416	-0.215325	0.402724	0
315.81	-0.0339879	0.31463	0.986429	0.48612	-0.293676	-0.0589846	-0.214451	-0.22672	0.397526	0
315.82	-0.0372322	0.315799	0.986138	0.496174	-0.324244	-0.0393105	-0.213396	-0.240173	0.383667	0
315.83	-0.040044	0.317038	0.986122	0.502061	-0.348421	-0.0155421	-0.211976	-0.253686	0.378022	0
315.84	-0.043465	0.31827	0.986368	0.507047	-0.370156	0.00296289	-0.208524	-0.269217	0.372336	0
315.85	-0.045704	0.319647	0.986898	0.509188	-0.389813	0.0156575	-0.205045	-0.287311	0.359202	0
315.86	-0.0460081	0.321038	0.98761	0.506678	-0.404439	0.0306019	-0.200336	-0.311251	0.346541	0
315.87	-0.0452708	0.322544	0.988529	0.50036	-0.413749	0.0486195	-0.196197	-0.336328	0.33051	0
315.88	-0.0441611	0.323638	0.989557	0.491621	-0.418786	0.0627603	-0.190329	-0.363958	0.312908	0
315.89	-0.042815	0.324726	0.99076	0.48074	-0.420745	0.0747001	-0.18334	-0.392803	0.28805	0
315.9	-0.0412222	0.325861	0.992154	0.468566	-0.420599	0.0871857	-0.173688	-0.425957	0.261792	0
315.91	-0.0395896	0.326846	0.993457	0.455675	-0.418136	0.098368	-0.160947	-0.464511	0.231313	0
315.92	-0.0365229	0.327805	0.994821	0.441358	-0.415763	0.110065	-0.146422	-0.506854	0.202588	0
315.93	-0.0342134	0.328748	0.995902	0.430564	-0.41891	0.122285	-0.128819	-0.551133	0.171796	0
315.94	-0.0338664	0.329576	0.996646	0.423298	-0.424465	0.138802	-0.107978	-0.595535	0.13782	0
315.95	-0.0364296	0.330146	0.996885	0.419136	-0.429131	0.153291	-0.0828158	-0.642229	0.100602	0
315.96	-0.0378628	0.330486	0.997243	0.413623	-0.432679	0.165459	-0.0566404	-0.692794	0.0676303	0
315.97	-0.0398058	0.330501	0.997697	0.408036	-0.434705	0.173905	-0.0281921	-0.742998	0.0267416	0
315.98	-0.041966	0.330289	0.998295	0.403054	-0.437452	0.182389	0.00360905	-0.794229	-0.0180669	0
315.99	-0.0448547	0.329699	0.998685	0.400077	-0.441947	0.192645	0.0383581	-0.846308	-0.0618334	0
316	-0.0475878	0.329043	0.998955	0.396437	-0.445241	0.202984	0.0711819	-0.893964	-0.0952409	0
316.01	-0.0502525	0.32827	0.999239	0.392783	-0.447989	0.21175	0.102027	-0.937253	-0.106237	0
316.02	-0.0518667	0.327107	0.999401	0.388997	-0.451734	0.22035	0.132289	-0.979273	-0.0962494	0
316.03	-0.0537919	0.325765	0.99954	0.38407	-0.4527	0.227557	0.163029	-1.018	-0.0754337	0
316.04	-0.0546728	0.324593	0.99988	0.376359	-0.451284	0.232708	0.192986	-1.05327	-0.060912	0
316.05	-0.0543496	0.323397	1.00034	0.368193	-0.451213	0.242651	0.221864	-1.08505	-0.0495389	0
316.06	-0.0509931	0.322339	1.00115	0.355814	-0.449543	0.252382	0.243862	-1.10329	-0.0440661	0
316.07	-0.0466989	0.321454	1.00235	0.341827	-0.446809	0.257921	0.260267	-1.10853	-0.0413569	0
316.08	-0.043531	0.320332	1.00356	0.328603	-0.442585	0.261831	0.282986	-1.12571	-0.0303076	0
316.09	-0.0423156	0.318959	1.00458	0.317262	-0.437689	0.266661	0.310745	-1.14822	-0.0134364	0
316.1	-0.0401593	0.317838	1.00565	0.304216	-0.431842	0.27249	0.334268	-1.16024	0.00166921	0
316.11	-0.0353908	0.316812	1.00699	0.286114	-0.422603	0.27755	0.351819	-1.16218	0.0175526	0
316.12	-0.0305758	0.315689	1.00839	0.268077	-0.413752	0.281052	0.367811	-1.15834	0.0332436	0
316.13	-0.0289853	0.314403	1.0095	0.254236	-0.405014	0.285334	0.387008	-1.15214	0.0492128	0
316.14	-0.0304906	0.312905	1.01034	0.244671	-0.397163	0.289035	0.408238	-1.1408	0.0622416	0
316.15	-0.0327326	0.311515	1.0112	0.234523	-0.387214	0.29064	0.428249	-1.12363	0.0724103	0
316.16	-0.0338243	0.310113	1.01192	0.223224	-0.377806	0.291588	0.446813	-1.10388	0.0793902	0
316.17	-0.0352589	0.308638	1.01261	0.212991	-0.369282	0.293159	0.465145	-1.08111	0.0888958	0
316.18	-0.0390444	0.307099	1.01296	0.204562	-0.359103	0.295947	0.483701	-1.05295	0.0942561	0
316.19	-0.0423792	0.305671	1.01307	0.194973	-0.347972	0.300007	0.499853	-1.02042	0.0971096	0
316.2	-0.0449217	0.30445	1.01337	0.183761	-0.335944	0.302991	0.512036	-0.98214	0.100068	0
